<svg width="256" height="29" viewBox="0 0 256 29" fill="none" xmlns="http://www.w3.org/2000/svg">
<path d="M25.05 8.5C26.0267 8.69057 26.9244 9.16826 27.6281 9.87194C28.3317 10.5756 28.8094 11.4733 29 12.45L25.05 8.5ZM25.05 4.5C27.0793 4.72544 28.9716 5.63417 30.4162 7.07701C31.8609 8.51984 32.772 10.411 33 12.44L25.05 4.5ZM32 20.42V23.42C32.0011 23.6985 31.9441 23.9742 31.8325 24.2293C31.7209 24.4845 31.5573 24.7136 31.3521 24.9019C31.1469 25.0901 30.9046 25.2335 30.6407 25.3227C30.3769 25.4119 30.0974 25.4451 29.82 25.42C26.7428 25.0856 23.787 24.0341 21.19 22.35C18.7738 20.8147 16.7253 18.7662 15.19 16.35C13.5 13.7412 12.4482 10.771 12.12 7.68C12.095 7.40347 12.1279 7.12476 12.2165 6.86162C12.3051 6.59849 12.4476 6.35669 12.6348 6.15162C12.822 5.94655 13.0498 5.78271 13.3038 5.67052C13.5578 5.55833 13.8323 5.50026 14.11 5.5H17.11C17.5953 5.49522 18.0658 5.66708 18.4338 5.98353C18.8017 6.29999 19.0421 6.73945 19.11 7.22C19.2366 8.18007 19.4715 9.12273 19.81 10.03C19.9445 10.3879 19.9737 10.7769 19.8939 11.1509C19.8142 11.5248 19.6289 11.8681 19.36 12.14L18.09 13.41C19.5136 15.9135 21.5864 17.9864 24.09 19.41L25.36 18.14C25.6319 17.8711 25.9751 17.6858 26.3491 17.6061C26.7231 17.5263 27.1121 17.5555 27.47 17.69C28.3773 18.0286 29.3199 18.2634 30.28 18.39C30.7658 18.4585 31.2094 18.7032 31.5265 19.0775C31.8437 19.4518 32.0122 19.9296 32 20.42Z" stroke="#7A9CA5" stroke-width="2" stroke-linecap="round" stroke-linejoin="round"/>
<path d="M49.784 21.24C48.6373 21.24 47.6693 20.9867 46.88 20.48C46.0907 19.968 45.4933 19.2613 45.088 18.36C44.6827 17.4587 44.48 16.4187 44.48 15.24C44.48 14.0613 44.6827 13.0213 45.088 12.12C45.4933 11.2187 46.0907 10.5147 46.88 10.008C47.6693 9.496 48.6373 9.24 49.784 9.24C51.1227 9.24 52.216 9.584 53.064 10.272C53.912 10.9547 54.4933 11.872 54.808 13.024L53.608 13.336C53.3627 12.424 52.9227 11.7013 52.288 11.168C51.6533 10.6347 50.8187 10.368 49.784 10.368C48.8827 10.368 48.1333 10.5733 47.536 10.984C46.9387 11.3947 46.488 11.968 46.184 12.704C45.8853 13.4347 45.7307 14.28 45.72 15.24C45.7147 16.2 45.8613 17.0453 46.16 17.776C46.464 18.5067 46.9173 19.08 47.52 19.496C48.128 19.9067 48.8827 20.112 49.784 20.112C50.8187 20.112 51.6533 19.8453 52.288 19.312C52.9227 18.7733 53.3627 18.0507 53.608 17.144L54.808 17.456C54.4933 18.608 53.912 19.528 53.064 20.216C52.216 20.8987 51.1227 21.24 49.784 21.24ZM59.0451 21.24C58.3945 21.24 57.8478 21.1227 57.4051 20.888C56.9678 20.6533 56.6398 20.3413 56.4211 19.952C56.2025 19.5627 56.0931 19.1387 56.0931 18.68C56.0931 18.2107 56.1865 17.8107 56.3731 17.48C56.5651 17.144 56.8238 16.8693 57.1491 16.656C57.4798 16.4427 57.8611 16.28 58.2931 16.168C58.7305 16.0613 59.2131 15.968 59.7411 15.888C60.2745 15.8027 60.7945 15.7307 61.3011 15.672C61.8131 15.608 62.2611 15.5467 62.6451 15.488L62.2291 15.744C62.2451 14.8907 62.0798 14.2587 61.7331 13.848C61.3865 13.4373 60.7838 13.232 59.9251 13.232C59.3331 13.232 58.8318 13.3653 58.4211 13.632C58.0158 13.8987 57.7305 14.32 57.5651 14.896L56.4211 14.56C56.6185 13.7867 57.0158 13.1867 57.6131 12.76C58.2105 12.3333 58.9865 12.12 59.9411 12.12C60.7305 12.12 61.3998 12.2693 61.9491 12.568C62.5038 12.8613 62.8958 13.288 63.1251 13.848C63.2318 14.0987 63.3011 14.3787 63.3331 14.688C63.3651 14.9973 63.3811 15.312 63.3811 15.632V21H62.3331V18.832L62.6371 18.96C62.3438 19.7013 61.8878 20.2667 61.2691 20.656C60.6505 21.0453 59.9091 21.24 59.0451 21.24ZM59.1811 20.224C59.7305 20.224 60.2105 20.1253 60.6211 19.928C61.0318 19.7307 61.3625 19.4613 61.6131 19.12C61.8638 18.7733 62.0265 18.384 62.1011 17.952C62.1651 17.6747 62.1998 17.3707 62.2051 17.04C62.2105 16.704 62.2131 16.4533 62.2131 16.288L62.6611 16.52C62.2611 16.5733 61.8265 16.6267 61.3571 16.68C60.8931 16.7333 60.4345 16.7947 59.9811 16.864C59.5331 16.9333 59.1278 17.016 58.7651 17.112C58.5198 17.1813 58.2825 17.28 58.0531 17.408C57.8238 17.5307 57.6345 17.696 57.4851 17.904C57.3411 18.112 57.2691 18.3707 57.2691 18.68C57.2691 18.9307 57.3305 19.1733 57.4531 19.408C57.5811 19.6427 57.7838 19.8373 58.0611 19.992C58.3438 20.1467 58.7171 20.224 59.1811 20.224ZM65.6238 21V9.24H66.7998V21H65.6238ZM69.3581 21V9.24H70.5341V21H69.3581ZM80.6316 21.24C79.7516 21.24 78.973 21.0587 78.2956 20.696C77.6236 20.3333 77.0956 19.8213 76.7116 19.16C76.3276 18.4987 76.1356 17.7253 76.1356 16.84V9.488L77.3196 9.48V16.688C77.3196 17.2853 77.421 17.8027 77.6236 18.24C77.8263 18.672 78.0903 19.0293 78.4156 19.312C78.7463 19.5893 79.1063 19.7947 79.4956 19.928C79.885 20.0613 80.2636 20.128 80.6316 20.128C81.005 20.128 81.3863 20.0613 81.7756 19.928C82.165 19.7947 82.5223 19.5893 82.8476 19.312C83.173 19.0293 83.437 18.672 83.6396 18.24C83.8423 17.8027 83.9436 17.2853 83.9436 16.688V9.48H85.1276V16.84C85.1276 17.7253 84.9356 18.4987 84.5516 19.16C84.1676 19.816 83.637 20.328 82.9596 20.696C82.2876 21.0587 81.5116 21.24 80.6316 21.24ZM90.594 21.232C89.5807 21.232 88.746 21.0133 88.09 20.576C87.4393 20.1387 87.0393 19.5307 86.89 18.752L88.09 18.552C88.218 19.0427 88.5087 19.4347 88.962 19.728C89.4207 20.016 89.986 20.16 90.658 20.16C91.314 20.16 91.8313 20.024 92.21 19.752C92.5887 19.4747 92.778 19.0987 92.778 18.624C92.778 18.3573 92.7167 18.1413 92.594 17.976C92.4767 17.8053 92.234 17.648 91.866 17.504C91.498 17.36 90.9487 17.1893 90.218 16.992C89.434 16.7787 88.8207 16.5653 88.378 16.352C87.9353 16.1387 87.6207 15.8933 87.434 15.616C87.2473 15.3333 87.154 14.9893 87.154 14.584C87.154 14.0933 87.2927 13.664 87.57 13.296C87.8473 12.9227 88.2313 12.6347 88.722 12.432C89.2127 12.224 89.7833 12.12 90.434 12.12C91.0847 12.12 91.666 12.2267 92.178 12.44C92.6953 12.648 93.1113 12.9413 93.426 13.32C93.7407 13.6987 93.9273 14.1387 93.986 14.64L92.786 14.856C92.706 14.3493 92.4527 13.9493 92.026 13.656C91.6047 13.3573 91.0687 13.2027 90.418 13.192C89.8047 13.176 89.306 13.2933 88.922 13.544C88.538 13.7893 88.346 14.1173 88.346 14.528C88.346 14.7573 88.4153 14.9547 88.554 15.12C88.6927 15.28 88.9433 15.432 89.306 15.576C89.674 15.72 90.1967 15.8773 90.874 16.048C91.6687 16.2507 92.2927 16.464 92.746 16.688C93.1993 16.912 93.522 17.176 93.714 17.48C93.906 17.784 94.002 18.16 94.002 18.608C94.002 19.424 93.698 20.0667 93.09 20.536C92.4873 21 91.6553 21.232 90.594 21.232ZM98.8194 16.464V15.456H103.619V16.464H98.8194ZM113.037 23.872C112.408 23.152 111.867 22.3467 111.413 21.456C110.965 20.5707 110.619 19.64 110.373 18.664C110.133 17.688 110.016 16.7067 110.021 15.72C110.016 14.7333 110.133 13.752 110.373 12.776C110.619 11.7947 110.965 10.8613 111.413 9.976C111.867 9.09067 112.408 8.288 113.037 7.568L113.901 8.24C113.283 8.98133 112.765 9.76 112.349 10.576C111.933 11.3867 111.621 12.224 111.413 13.088C111.211 13.952 111.107 14.8293 111.101 15.72C111.107 16.6 111.213 17.4773 111.421 18.352C111.635 19.2213 111.947 20.0667 112.357 20.888C112.773 21.704 113.288 22.4693 113.901 23.184L113.037 23.872ZM118.706 18.896V15.744H115.554V14.736H118.706V11.584H119.714V14.736H122.858V15.744H119.714V18.896H118.706ZM124.613 20.992L124.621 19.92L129.829 15.216C130.277 14.8107 130.573 14.4267 130.717 14.064C130.866 13.696 130.941 13.312 130.941 12.912C130.941 12.4373 130.829 12.008 130.605 11.624C130.381 11.24 130.079 10.936 129.701 10.712C129.322 10.4827 128.898 10.368 128.429 10.368C127.938 10.368 127.501 10.4853 127.117 10.72C126.733 10.9547 126.429 11.264 126.205 11.648C125.986 12.032 125.879 12.4507 125.885 12.904H124.685C124.685 12.2053 124.85 11.5787 125.181 11.024C125.511 10.4693 125.959 10.0347 126.525 9.72C127.09 9.4 127.73 9.24 128.445 9.24C129.143 9.24 129.77 9.40533 130.325 9.736C130.885 10.0613 131.325 10.504 131.645 11.064C131.97 11.6187 132.133 12.2373 132.133 12.92C132.133 13.4 132.074 13.824 131.957 14.192C131.845 14.5547 131.666 14.8933 131.421 15.208C131.181 15.5173 130.874 15.8373 130.501 16.168L125.877 20.344L125.693 19.864H132.133V20.992H124.613ZM133.738 20.992L133.746 19.92L138.954 15.216C139.402 14.8107 139.698 14.4267 139.842 14.064C139.991 13.696 140.066 13.312 140.066 12.912C140.066 12.4373 139.954 12.008 139.73 11.624C139.506 11.24 139.204 10.936 138.826 10.712C138.447 10.4827 138.023 10.368 137.554 10.368C137.063 10.368 136.626 10.4853 136.242 10.72C135.858 10.9547 135.554 11.264 135.33 11.648C135.111 12.032 135.004 12.4507 135.01 12.904H133.81C133.81 12.2053 133.975 11.5787 134.306 11.024C134.636 10.4693 135.084 10.0347 135.65 9.72C136.215 9.4 136.855 9.24 137.57 9.24C138.268 9.24 138.895 9.40533 139.45 9.736C140.01 10.0613 140.45 10.504 140.77 11.064C141.095 11.6187 141.258 12.2373 141.258 12.92C141.258 13.4 141.199 13.824 141.082 14.192C140.97 14.5547 140.791 14.8933 140.546 15.208C140.306 15.5173 139.999 15.8373 139.626 16.168L135.002 20.344L134.818 19.864H141.258V20.992H133.738ZM143.623 23.392L142.759 22.704C143.372 21.9893 143.884 21.224 144.295 20.408C144.711 19.5867 145.023 18.7413 145.231 17.872C145.444 16.9973 145.553 16.12 145.559 15.24C145.553 14.3493 145.447 13.472 145.239 12.608C145.036 11.744 144.727 10.9067 144.311 10.096C143.895 9.28 143.377 8.50133 142.759 7.76L143.623 7.088C144.252 7.808 144.791 8.61067 145.239 9.496C145.692 10.3813 146.039 11.3147 146.279 12.296C146.524 13.272 146.644 14.2533 146.639 15.24C146.644 16.2267 146.524 17.208 146.279 18.184C146.039 19.16 145.692 20.0933 145.239 20.984C144.791 21.8693 144.252 22.672 143.623 23.392ZM155.206 21V10.792L153.038 12.096V10.776L155.206 9.48H156.398V21H155.206ZM159.113 20.992L159.121 19.92L164.329 15.216C164.777 14.8107 165.073 14.4267 165.217 14.064C165.366 13.696 165.441 13.312 165.441 12.912C165.441 12.4373 165.329 12.008 165.105 11.624C164.881 11.24 164.579 10.936 164.201 10.712C163.822 10.4827 163.398 10.368 162.929 10.368C162.438 10.368 162.001 10.4853 161.617 10.72C161.233 10.9547 160.929 11.264 160.705 11.648C160.486 12.032 160.379 12.4507 160.385 12.904H159.185C159.185 12.2053 159.35 11.5787 159.681 11.024C160.011 10.4693 160.459 10.0347 161.025 9.72C161.59 9.4 162.23 9.24 162.945 9.24C163.643 9.24 164.27 9.40533 164.825 9.736C165.385 10.0613 165.825 10.504 166.145 11.064C166.47 11.6187 166.633 12.2373 166.633 12.92C166.633 13.4 166.574 13.824 166.457 14.192C166.345 14.5547 166.166 14.8933 165.921 15.208C165.681 15.5173 165.374 15.8373 165.001 16.168L160.377 20.344L160.193 19.864H166.633V20.992H159.113ZM171.654 21.232C171.083 21.232 170.558 21.1307 170.078 20.928C169.598 20.7253 169.184 20.4373 168.838 20.064C168.491 19.6853 168.238 19.2347 168.078 18.712L169.198 18.376C169.39 18.9467 169.704 19.3787 170.142 19.672C170.584 19.9653 171.083 20.1067 171.638 20.096C172.15 20.0853 172.59 19.9707 172.958 19.752C173.331 19.5333 173.616 19.2293 173.814 18.84C174.011 18.4507 174.11 18 174.11 17.488C174.11 16.704 173.88 16.0747 173.422 15.6C172.968 15.12 172.368 14.88 171.622 14.88C171.414 14.88 171.195 14.9093 170.966 14.968C170.736 15.0213 170.523 15.0987 170.326 15.2L169.734 14.264L174.214 10.128L174.406 10.608H168.534V9.48H175.19V10.624L171.286 14.352L171.27 13.888C172.07 13.7867 172.774 13.8773 173.382 14.16C173.99 14.4427 174.464 14.8747 174.806 15.456C175.152 16.032 175.326 16.7093 175.326 17.488C175.326 18.224 175.166 18.8747 174.846 19.44C174.531 20 174.096 20.44 173.542 20.76C172.987 21.0747 172.358 21.232 171.654 21.232ZM185.676 21V18.768H180.284V17.648L184.14 9.48H185.46L181.604 17.648H185.676V14.288H186.86V17.648H188.116V18.768H186.86V21H185.676ZM193.442 21.24C192.845 21.24 192.293 21.1173 191.786 20.872C191.279 20.6267 190.847 20.288 190.49 19.856C190.133 19.424 189.877 18.928 189.722 18.368L190.85 18.064C190.951 18.48 191.135 18.84 191.402 19.144C191.669 19.4427 191.981 19.6747 192.338 19.84C192.701 20.0053 193.079 20.088 193.474 20.088C193.986 20.088 194.445 19.9653 194.85 19.72C195.261 19.4693 195.586 19.1387 195.826 18.728C196.066 18.3173 196.186 17.8667 196.186 17.376C196.186 16.8693 196.061 16.4133 195.81 16.008C195.559 15.5973 195.229 15.272 194.818 15.032C194.407 14.792 193.959 14.672 193.474 14.672C192.93 14.672 192.461 14.792 192.066 15.032C191.671 15.2667 191.357 15.5627 191.122 15.92L190.05 15.472L190.402 9.48H196.554V10.608H190.922L191.506 10.056L191.194 15.168L190.898 14.776C191.229 14.3973 191.629 14.1013 192.098 13.888C192.567 13.6747 193.061 13.568 193.578 13.568C194.287 13.568 194.927 13.7387 195.498 14.08C196.069 14.416 196.522 14.872 196.858 15.448C197.194 16.024 197.362 16.6667 197.362 17.376C197.362 18.08 197.183 18.7253 196.826 19.312C196.469 19.8933 195.994 20.36 195.402 20.712C194.81 21.064 194.157 21.24 193.442 21.24ZM203.172 21.24C202.452 21.24 201.796 21.0667 201.204 20.72C200.618 20.368 200.148 19.8933 199.796 19.296C199.45 18.6933 199.276 18.016 199.276 17.264V13.272C199.276 12.4987 199.45 11.8107 199.796 11.208C200.143 10.6 200.615 10.1227 201.212 9.776C201.815 9.424 202.498 9.248 203.26 9.248C203.916 9.248 204.524 9.392 205.084 9.68C205.65 9.968 206.111 10.3707 206.468 10.888L205.564 11.632C205.319 11.248 204.994 10.9413 204.588 10.712C204.183 10.4827 203.74 10.368 203.26 10.368C202.722 10.368 202.242 10.4987 201.82 10.76C201.399 11.0213 201.068 11.3653 200.828 11.792C200.588 12.2133 200.468 12.672 200.468 13.168V15.68L200.172 15.344C200.508 14.816 200.948 14.3893 201.492 14.064C202.042 13.7387 202.639 13.576 203.284 13.576C203.999 13.576 204.642 13.7467 205.212 14.088C205.783 14.424 206.236 14.88 206.572 15.456C206.908 16.032 207.076 16.6773 207.076 17.392C207.076 18.1013 206.898 18.7467 206.54 19.328C206.188 19.9093 205.716 20.3733 205.124 20.72C204.538 21.0667 203.887 21.24 203.172 21.24ZM203.172 20.096C203.674 20.096 204.13 19.976 204.54 19.736C204.956 19.496 205.284 19.1707 205.524 18.76C205.77 18.3493 205.892 17.8933 205.892 17.392C205.892 16.8907 205.77 16.4347 205.524 16.024C205.284 15.608 204.959 15.28 204.548 15.04C204.138 14.7947 203.682 14.672 203.18 14.672C202.679 14.672 202.223 14.7947 201.812 15.04C201.402 15.28 201.074 15.608 200.828 16.024C200.588 16.4347 200.468 16.8907 200.468 17.392C200.468 17.888 200.588 18.3413 200.828 18.752C201.068 19.1627 201.394 19.4907 201.804 19.736C202.215 19.976 202.671 20.096 203.172 20.096ZM213.017 21L217.257 10.624H211.921V9.48H218.513V10.624L214.281 21H213.017ZM223.945 21.24C223.225 21.24 222.587 21.096 222.033 20.808C221.483 20.52 221.051 20.1173 220.737 19.6C220.427 19.0773 220.273 18.4667 220.273 17.768C220.273 17.0533 220.446 16.4187 220.793 15.864C221.139 15.304 221.667 14.88 222.377 14.592L222.361 15.056C221.769 14.8373 221.318 14.48 221.009 13.984C220.699 13.488 220.545 12.9387 220.545 12.336C220.545 11.696 220.691 11.1467 220.985 10.688C221.278 10.224 221.678 9.86667 222.185 9.616C222.697 9.36533 223.283 9.24 223.945 9.24C224.606 9.24 225.193 9.36533 225.705 9.616C226.217 9.86667 226.619 10.224 226.913 10.688C227.206 11.1467 227.352 11.696 227.352 12.336C227.352 12.9387 227.203 13.4853 226.905 13.976C226.611 14.4667 226.161 14.8267 225.553 15.056L225.513 14.592C226.222 14.8747 226.753 15.296 227.105 15.856C227.462 16.416 227.641 17.0533 227.641 17.768C227.641 18.4667 227.483 19.0773 227.169 19.6C226.854 20.1173 226.419 20.52 225.865 20.808C225.31 21.096 224.67 21.24 223.945 21.24ZM223.945 20.112C224.67 20.112 225.259 19.912 225.713 19.512C226.166 19.1067 226.393 18.5253 226.393 17.768C226.393 17 226.169 16.4187 225.721 16.024C225.273 15.624 224.681 15.424 223.945 15.424C223.209 15.424 222.619 15.624 222.177 16.024C221.734 16.4187 221.513 17 221.513 17.768C221.513 18.5253 221.737 19.1067 222.185 19.512C222.633 19.912 223.219 20.112 223.945 20.112ZM223.945 14.288C224.585 14.288 225.105 14.1253 225.505 13.8C225.905 13.4693 226.105 12.9813 226.105 12.336C226.105 11.6907 225.905 11.208 225.505 10.888C225.105 10.5627 224.585 10.4 223.945 10.4C223.305 10.4 222.785 10.5627 222.385 10.888C221.99 11.208 221.793 11.6907 221.793 12.336C221.793 12.9813 221.99 13.4693 222.385 13.8C222.785 14.1253 223.305 14.288 223.945 14.288ZM233.506 9.248C234.231 9.248 234.887 9.424 235.474 9.776C236.066 10.1227 236.535 10.5973 236.882 11.2C237.228 11.7973 237.402 12.4693 237.402 13.216V17.216C237.402 17.984 237.228 18.672 236.882 19.28C236.535 19.888 236.06 20.368 235.458 20.72C234.86 21.0667 234.18 21.24 233.418 21.24C232.762 21.24 232.154 21.096 231.594 20.808C231.039 20.5147 230.58 20.112 230.218 19.6L231.114 18.856C231.359 19.2347 231.684 19.5387 232.09 19.768C232.5 19.9973 232.943 20.112 233.418 20.112C233.962 20.112 234.442 19.984 234.858 19.728C235.279 19.4667 235.61 19.1253 235.85 18.704C236.095 18.2773 236.218 17.816 236.218 17.32V14.808L236.506 15.144C236.175 15.672 235.735 16.0987 235.186 16.424C234.642 16.7493 234.044 16.912 233.394 16.912C232.684 16.912 232.042 16.7413 231.466 16.4C230.895 16.0587 230.442 15.6 230.106 15.024C229.775 14.448 229.61 13.8053 229.61 13.096C229.61 12.3867 229.786 11.7413 230.138 11.16C230.49 10.5733 230.962 10.1093 231.554 9.768C232.146 9.42133 232.796 9.248 233.506 9.248ZM233.506 10.384C233.004 10.384 232.548 10.5067 232.138 10.752C231.727 10.992 231.399 11.3173 231.154 11.728C230.914 12.1387 230.794 12.5947 230.794 13.096C230.794 13.5973 230.914 14.0533 231.154 14.464C231.394 14.8747 231.719 15.2027 232.13 15.448C232.54 15.688 232.996 15.808 233.498 15.808C233.999 15.808 234.455 15.688 234.866 15.448C235.282 15.2027 235.61 14.8747 235.85 14.464C236.095 14.0533 236.218 13.5973 236.218 13.096C236.218 12.6 236.095 12.1467 235.85 11.736C235.61 11.3253 235.284 10.9973 234.874 10.752C234.463 10.5067 234.007 10.384 233.506 10.384ZM243.396 21.24C242.686 21.24 242.046 21.0747 241.476 20.744C240.91 20.4133 240.462 19.9653 240.132 19.4C239.801 18.8293 239.636 18.1893 239.636 17.48V13C239.636 12.2907 239.801 11.6533 240.132 11.088C240.462 10.5173 240.91 10.0667 241.476 9.736C242.046 9.40533 242.686 9.24 243.396 9.24C244.105 9.24 244.742 9.40533 245.308 9.736C245.878 10.0667 246.329 10.5173 246.66 11.088C246.99 11.6533 247.156 12.2907 247.156 13V17.48C247.156 18.1893 246.99 18.8293 246.66 19.4C246.329 19.9653 245.878 20.4133 245.308 20.744C244.742 21.0747 244.105 21.24 243.396 21.24ZM243.396 20.104C243.87 20.104 244.302 19.9893 244.692 19.76C245.081 19.5253 245.39 19.2133 245.62 18.824C245.849 18.4347 245.964 18.0053 245.964 17.536V12.944C245.964 12.4693 245.849 12.0373 245.62 11.648C245.39 11.2587 245.081 10.9493 244.692 10.72C244.302 10.4853 243.87 10.368 243.396 10.368C242.921 10.368 242.489 10.4853 242.1 10.72C241.71 10.9493 241.401 11.2587 241.172 11.648C240.942 12.0373 240.828 12.4693 240.828 12.944V17.536C240.828 18.0053 240.942 18.4347 241.172 18.824C241.401 19.2133 241.71 19.5253 242.1 19.76C242.489 19.9893 242.921 20.104 243.396 20.104Z" fill="#141414"/>
</svg>
